<svg width="17" height="14" viewBox="0 0 17 14" fill="none" xmlns="http://www.w3.org/2000/svg">
<path d="M16.5555 1.59643C15.9466 1.8662 15.2926 2.04848 14.6051 2.13087C15.3145 1.70637 15.8452 1.03826 16.0983 0.251196C15.4318 0.647102 14.7023 0.925777 13.9416 1.0751C13.43 0.528893 12.7524 0.166856 12.014 0.0452C11.2756 -0.0764556 10.5177 0.0490771 9.85791 0.402309C9.19816 0.75554 8.67348 1.31671 8.36533 1.99869C8.05719 2.68067 7.98282 3.4453 8.15378 4.17387C6.80321 4.10606 5.482 3.75503 4.27588 3.14356C3.06977 2.53208 2.0057 1.67383 1.15274 0.624507C0.861094 1.1276 0.693395 1.7109 0.693395 2.33211C0.69307 2.89135 0.830786 3.44201 1.09432 3.93526C1.35786 4.4285 1.73907 4.84907 2.20414 5.15965C1.66479 5.14249 1.13734 4.99675 0.665689 4.73457V4.77832C0.665634 5.56266 0.936946 6.32287 1.43359 6.92996C1.93023 7.53704 2.62161 7.95359 3.39042 8.10895C2.89008 8.24436 2.36552 8.2643 1.85635 8.16728C2.07326 8.84216 2.49578 9.43233 3.06477 9.85514C3.63376 10.278 4.32072 10.5123 5.02949 10.5253C3.82631 11.4698 2.3404 11.9821 0.810784 11.9799C0.539828 11.9799 0.269102 11.9641 0 11.9325C1.55265 12.9308 3.36004 13.4606 5.20593 13.4585C11.4545 13.4585 14.8705 8.28321 14.8705 3.79473C14.8705 3.64891 14.8668 3.50162 14.8602 3.3558C15.5247 2.87529 16.0982 2.28027 16.554 1.59861L16.5555 1.59643Z" fill="#B8B8B8"/>
</svg>
